<svg width="150" height="150" viewBox="0 0 150 150" fill="none" xmlns="http://www.w3.org/2000/svg">
<path d="M75.0768 123.691C57.6254 123.691 42.3234 114.565 33.6745 100.85L11.8219 113.392C24.8209 134.602 48.26 148.776 75.0256 148.776C101.74 148.776 125.179 134.653 138.178 113.494L116.428 100.952C107.779 114.616 92.477 123.691 75.0768 123.691Z" fill="#1E98D7"/>
<path d="M26.3051 75.051C26.3051 48.2325 48.1065 26.4616 75.0257 26.4107V1.32568C34.1864 1.37667 1.12598 34.3644 1.12598 75.051C1.12598 89.0721 5.06661 102.226 11.8732 113.392L33.7258 100.85C29.0175 93.3549 26.3051 84.5344 26.3051 75.051Z" fill="#E6E7E8"/>
<path d="M75.0768 1.32568H75.0256V26.4107H75.0768C102.047 26.4107 123.9 48.1816 123.9 75.051C123.9 84.5854 121.136 93.4569 116.428 100.952L138.229 113.494C145.087 102.277 149.079 89.1231 149.079 75.051C149.079 34.3644 115.967 1.32568 75.0768 1.32568Z" fill="#1E98D7"/>
<g filter="url(#filter0_d)">
<path d="M74.9745 123.743C101.995 123.743 123.9 101.92 123.9 75.0002C123.9 48.0805 101.995 26.2578 74.9745 26.2578C47.9538 26.2578 26.0492 48.0805 26.0492 75.0002C26.0492 101.92 47.9538 123.743 74.9745 123.743Z" fill="white"/>
</g>
<g filter="url(#filter1_d)">
<path fill-rule="evenodd" clip-rule="evenodd" d="M59 93.6709V66.1327C59 65.4915 59.2616 64.9082 59.6841 64.4878C60.1066 64.0653 60.6878 63.8037 61.329 63.8037H65.4594H78.2924C78.9315 63.8037 79.5127 64.0653 79.9351 64.4878L79.9394 64.4921C80.3598 64.9146 80.6214 65.4958 80.6214 66.1327V93.6709C80.6214 94.3121 80.3598 94.8955 79.9373 95.3158C79.5148 95.7383 78.9336 95.9999 78.2924 95.9999H65.4594H61.329C60.6878 95.9999 60.1044 95.7383 59.6841 95.3158C59.2616 94.8955 59 94.3121 59 93.6709Z" fill="#1D3C50"/>
<path fill-rule="evenodd" clip-rule="evenodd" d="M59 93.6709V66.1327C59 65.4915 59.2616 64.9082 59.6841 64.4878C60.1066 64.0653 60.6878 63.8037 61.329 63.8037H65.4594H78.2924C78.9315 63.8037 79.5127 64.0653 79.9351 64.4878L79.9394 64.4921C80.3598 64.9146 80.6214 65.4958 80.6214 66.1327V93.6709C80.6214 94.3121 80.3598 94.8955 79.9373 95.3158C79.5148 95.7383 78.9336 95.9999 78.2924 95.9999H65.4594H61.329C60.6878 95.9999 60.1044 95.7383 59.6841 95.3158C59.2616 94.8955 59 94.3121 59 93.6709Z" stroke="#1D3C50" stroke-width="2" stroke-miterlimit="10"/>
</g>
<path fill-rule="evenodd" clip-rule="evenodd" d="M61.3268 94.5334C61.0845 94.5334 60.8636 94.4347 60.7027 94.2739C60.5419 94.113 60.4432 93.8921 60.4432 93.6498V66.1116C60.4432 65.8671 60.5419 65.6462 60.7006 65.4875L60.7027 65.4854C60.8614 65.3267 61.0823 65.228 61.3268 65.228L78.2902 65.2495C78.5347 65.2495 78.7556 65.3481 78.9143 65.5068L78.9164 65.509C79.0751 65.6677 79.1738 65.8886 79.1738 66.133V93.6713C79.1738 93.9136 79.0751 94.1345 78.9143 94.2953C78.7534 94.4562 78.5326 94.5548 78.2902 94.5548L61.3268 94.5334Z" fill="#0A97D4"/>
<path fill-rule="evenodd" clip-rule="evenodd" d="M61.3268 94.533C61.0845 94.533 60.8636 94.4344 60.7027 94.2735C60.5419 94.1127 60.4432 93.8918 60.4432 93.6495V88.6162L79.1738 88.6377V93.6709C79.1738 93.9133 79.0751 94.1342 78.9143 94.295C78.7534 94.4558 78.5326 94.5545 78.2902 94.5545L61.3268 94.533Z" fill="#DCDDDE"/>
<path d="M59.9008 88.0459H79.4998" stroke="#1D3C50" stroke-width="2" stroke-miterlimit="10"/>
<path d="M69.742 93.8513C70.782 93.8513 71.625 93.0083 71.625 91.9684C71.625 90.9285 70.782 90.0854 69.742 90.0854C68.7021 90.0854 67.8591 90.9285 67.8591 91.9684C67.8591 93.0083 68.7021 93.8513 69.742 93.8513Z" fill="#1D3C50"/>
<path d="M78.1444 60.2503C79.5705 59.993 81.0975 60.2975 82.3606 61.2218C83.5851 62.1161 84.3314 63.4243 84.548 64.8139" stroke="#1D3C50" stroke-width="2" stroke-miterlimit="10" stroke-linecap="round"/>
<path d="M78.1487 57.1062C80.2718 56.7416 82.5343 57.2027 84.4108 58.5731C86.2101 59.8877 87.3209 61.792 87.6705 63.8272" stroke="#1D3C50" stroke-width="2" stroke-miterlimit="10" stroke-linecap="round"/>
<path d="M78.1187 54.1619C80.9066 53.6751 83.8811 54.2778 86.3473 56.0792C88.7556 57.8377 90.2225 60.4069 90.6471 63.1369" stroke="#1D3C50" stroke-width="2" stroke-miterlimit="10" stroke-linecap="round"/>
<defs>
<filter id="filter0_d" x="18.0492" y="18.2578" width="113.851" height="113.485" filterUnits="userSpaceOnUse" color-interpolation-filters="sRGB">
<feFlood flood-opacity="0" result="BackgroundImageFix"/>
<feColorMatrix in="SourceAlpha" type="matrix" values="0 0 0 0 0 0 0 0 0 0 0 0 0 0 0 0 0 0 127 0"/>
<feOffset/>
<feGaussianBlur stdDeviation="4"/>
<feColorMatrix type="matrix" values="0 0 0 0 0 0 0 0 0 0 0 0 0 0 0 0 0 0 0.4 0"/>
<feBlend mode="normal" in2="BackgroundImageFix" result="effect1_dropShadow"/>
<feBlend mode="normal" in="SourceGraphic" in2="effect1_dropShadow" result="shape"/>
</filter>
<filter id="filter1_d" x="54" y="62.8037" width="31.6214" height="42.1962" filterUnits="userSpaceOnUse" color-interpolation-filters="sRGB">
<feFlood flood-opacity="0" result="BackgroundImageFix"/>
<feColorMatrix in="SourceAlpha" type="matrix" values="0 0 0 0 0 0 0 0 0 0 0 0 0 0 0 0 0 0 127 0"/>
<feOffset dy="4"/>
<feGaussianBlur stdDeviation="2"/>
<feColorMatrix type="matrix" values="0 0 0 0 0 0 0 0 0 0 0 0 0 0 0 0 0 0 0.25 0"/>
<feBlend mode="normal" in2="BackgroundImageFix" result="effect1_dropShadow"/>
<feBlend mode="normal" in="SourceGraphic" in2="effect1_dropShadow" result="shape"/>
</filter>
</defs>
</svg>
