<svg width="150" height="150" viewBox="0 0 150 150" fill="none" xmlns="http://www.w3.org/2000/svg">
<path opacity="0.5" d="M75.0768 123.691C57.6254 123.691 42.3234 114.565 33.6745 100.85L11.8219 113.392C24.8209 134.602 48.26 148.776 75.0256 148.776C101.74 148.776 125.179 134.653 138.178 113.494L116.428 100.952C107.779 114.616 92.477 123.691 75.0768 123.691Z" fill="#E6E7E8"/>
<path d="M26.305 75.0511C26.305 48.2326 48.1065 26.4617 75.0256 26.4107V1.32568C34.1863 1.37667 1.12592 34.3644 1.12592 75.0511C1.12592 89.0721 5.06655 102.226 11.8731 113.392L33.7257 100.85C29.0174 93.3549 26.305 84.5344 26.305 75.0511Z" fill="#E6E7E8"/>
<path d="M75.0768 1.32568H75.0256V26.4107H75.0768C102.047 26.4107 123.9 48.1816 123.9 75.051C123.9 84.5854 121.136 93.4569 116.428 100.952L138.229 113.494C145.087 102.277 149.079 89.1231 149.079 75.051C149.079 34.3644 115.967 1.32568 75.0768 1.32568Z" fill="#1E98D7"/>
<g filter="url(#filter0_d)">
<path d="M74.9744 123.743C101.995 123.743 123.9 101.92 123.9 75.0002C123.9 48.0805 101.995 26.2578 74.9744 26.2578C47.9537 26.2578 26.0491 48.0805 26.0491 75.0002C26.0491 101.92 47.9537 123.743 74.9744 123.743Z" fill="white"/>
</g>
<path d="M64.4708 72.0142C67.2329 72.0142 69.472 69.775 69.472 67.0129C69.472 64.2508 67.2329 62.0117 64.4708 62.0117C61.7087 62.0117 59.4696 64.2508 59.4696 67.0129C59.4696 69.775 61.7087 72.0142 64.4708 72.0142Z" fill="white"/>
<path d="M51.9449 93.1972L53.4892 82.2797L57.5867 78.1821L70.0531 78.8891L75.8666 80.0742L76.2669 85.0891V93.0554L51.9449 93.1972Z" fill="#FEC00F"/>
<path d="M64.6058 73.9314C68.4402 73.9314 71.5585 70.813 71.5585 66.9786C71.5585 63.1442 68.4402 60.0259 64.6058 60.0259C60.7713 60.0259 57.653 63.1442 57.653 66.9786C57.653 70.813 60.7736 73.9314 64.6058 73.9314ZM64.6058 62.9703C66.8181 62.9703 68.6164 64.7686 68.6164 66.9809C68.6164 69.1933 66.8181 70.9915 64.6058 70.9915C62.3934 70.9915 60.5952 69.1933 60.5952 66.9809C60.5952 64.7686 62.3957 62.9703 64.6058 62.9703Z" fill="#1D3C50"/>
<path d="M69.1083 75.9473H60.1193C55.0907 75.9473 51 80.0494 51 85.0895V93.1976C51 94.7419 52.256 96.0002 53.8026 96.0002H75.4387C76.9967 96.0002 78.2642 94.7442 78.2642 93.1976V85.0895C78.2619 80.0471 74.1552 75.9473 69.1083 75.9473ZM60.117 78.8894H69.106C72.5309 78.8894 75.3175 81.6714 75.3197 85.0895V93.0557H73.0159V85.1375C73.0159 84.4695 72.4737 83.925 71.8033 83.925C71.1353 83.925 70.5908 84.4672 70.5908 85.1375V93.0557H58.662V85.1375C58.662 84.4695 58.1198 83.925 57.4494 83.925C56.7791 83.925 56.2369 84.4672 56.2369 85.1375V93.0557H53.933V85.0895C53.9422 81.6692 56.7127 78.8894 60.117 78.8894Z" fill="#1D3C50"/>
<path d="M89.454 70.4265C89.1451 70.0558 88.5938 70.0078 88.2254 70.3167C86.7498 71.5498 84.6221 72.2041 82.3914 72.1103C81.7417 72.0829 81.0759 71.9753 80.4674 71.8015H80.4651H80.4628C80.019 71.6779 79.5499 71.7671 79.2068 72.044C78.8224 72.3528 78.3992 72.5976 77.953 72.7761C78.1063 72.3483 78.1818 71.8907 78.1704 71.4217C78.1612 71.0236 77.9919 70.6553 77.7059 70.4059C77.7037 70.4036 77.7037 70.4036 77.7014 70.4013C76.9052 69.6989 76.3927 69.008 76.1319 68.2873C75.791 67.3447 75.807 66.3129 76.1754 65.3795C76.6009 64.2996 77.4749 63.3868 78.7721 62.6661C79.1358 62.4625 79.5911 62.2474 79.7284 62.2108C80.1974 62.1193 80.5063 61.6663 80.4193 61.195C80.3324 60.7214 79.8771 60.408 79.4035 60.495C78.9665 60.575 78.223 60.9731 77.9233 61.1378C76.2646 62.0598 75.1298 63.2724 74.5533 64.7366C74.0294 66.0636 74.0088 67.5346 74.4915 68.8753C74.8393 69.8362 75.473 70.7262 76.4248 71.5933C76.3973 72.2705 76.0267 72.8859 75.4341 73.2268C75.4318 73.2291 75.4295 73.2291 75.4273 73.2314C75.4112 73.2405 75.3952 73.252 75.3792 73.2611C75.3701 73.268 75.3609 73.2725 75.3518 73.2794C75.338 73.2886 75.3266 73.3 75.3152 73.3091C75.306 73.3183 75.2946 73.3252 75.2854 73.3343C75.2763 73.3435 75.2671 73.3503 75.258 73.3595C75.2465 73.3709 75.2351 73.3824 75.2236 73.3938C75.2168 73.4007 75.2099 73.4098 75.203 73.419C75.1916 73.4327 75.1802 73.4441 75.171 73.4579C75.1619 73.4716 75.1527 73.4853 75.1436 73.499C75.1367 73.5082 75.1298 73.5173 75.1253 73.5265C75.1115 73.5494 75.1001 73.5722 75.0887 73.5951C75.0887 73.5974 75.0864 73.5974 75.0864 73.5997C75.0749 73.6226 75.0658 73.6477 75.0543 73.6729C75.0543 73.6752 75.0521 73.6752 75.0521 73.6775C75.0452 73.6981 75.0383 73.7164 75.0337 73.737C75.0315 73.7438 75.0292 73.7507 75.0269 73.7599C75.0223 73.7759 75.02 73.7896 75.0177 73.8056C75.0154 73.8193 75.0109 73.8331 75.0086 73.8445C75.0063 73.8559 75.0063 73.8674 75.004 73.8788C75.0017 73.8971 74.9994 73.9131 74.9994 73.9314C74.9994 73.9337 74.9994 73.936 74.9994 73.9383C74.9994 73.9475 74.9994 73.9543 74.9994 73.9635C74.9994 73.9818 74.9994 74.0001 74.9994 74.0184C74.9994 74.0298 75.0017 74.0413 75.0017 74.0527C75.004 74.0687 75.004 74.087 75.0063 74.103C75.0086 74.1168 75.0109 74.1282 75.0132 74.1419C75.0154 74.1557 75.0177 74.1717 75.0223 74.1854C75.0269 74.1991 75.0292 74.2151 75.0337 74.2289C75.0383 74.2403 75.0406 74.254 75.0452 74.2655C75.0498 74.2815 75.0566 74.2975 75.0635 74.3135C75.0681 74.325 75.0726 74.3341 75.0772 74.3455C75.0841 74.3616 75.0932 74.3799 75.1024 74.3959C75.107 74.4027 75.1092 74.4096 75.1138 74.4165C75.1161 74.4187 75.1161 74.421 75.1184 74.4256C75.123 74.4325 75.1275 74.4393 75.1298 74.4462C75.139 74.4622 75.1504 74.4782 75.1619 74.4942C75.1642 74.4988 75.1687 74.5034 75.171 74.508C75.187 74.5286 75.203 74.5492 75.2191 74.5675C75.2191 74.5675 75.2191 74.5675 75.2213 74.5697C75.2397 74.5881 75.2557 74.6064 75.2763 74.6247C75.2785 74.6269 75.2808 74.6292 75.2854 74.6315C75.3243 74.6658 75.3655 74.6979 75.4067 74.723C75.4112 74.7253 75.4181 74.7299 75.4227 74.7322C75.441 74.7436 75.4616 74.7551 75.4799 74.7642C75.4845 74.7665 75.4913 74.7688 75.4959 74.7734C75.5142 74.7825 75.5325 74.7894 75.5531 74.7985C75.5622 74.8008 75.5714 74.8054 75.5783 74.8077C75.5988 74.8145 75.6194 74.8214 75.64 74.826C75.6469 74.8283 75.6537 74.8283 75.6606 74.8306C75.6812 74.8351 75.7018 74.8397 75.7224 74.8443C75.7293 74.8466 75.7361 74.8466 75.743 74.8466C75.7681 74.8512 75.7933 74.8534 75.8208 74.8534H75.8231C75.9374 74.8603 76.0495 74.8626 76.1616 74.8626C77.5938 74.8626 78.9894 74.3913 80.1448 73.5151C80.8403 73.7004 81.5884 73.817 82.3182 73.8468C82.4898 73.8537 82.6614 73.8582 82.8307 73.8582C85.3313 73.8582 87.6283 73.0826 89.3442 71.6482C89.7125 71.3462 89.7629 70.7971 89.454 70.4265Z" fill="#1D3C50" stroke="#1D3C50" stroke-miterlimit="10"/>
<path d="M86.1549 61.8954C86.7978 61.8954 87.3195 61.3738 87.3195 60.7309C87.3195 60.088 86.7978 59.5664 86.1549 59.5664C85.5121 59.5664 84.9904 60.088 84.9904 60.7309C84.9881 61.3738 85.5121 61.8954 86.1549 61.8954Z" fill="#1D3C50" stroke="#1D3C50" stroke-miterlimit="10"/>
<path d="M90.3188 61.8954C90.9617 61.8954 91.4833 61.3738 91.4833 60.7309C91.4833 60.088 90.9617 59.5664 90.3188 59.5664C89.6759 59.5664 89.1543 60.088 89.1543 60.7309C89.1543 61.3738 89.6759 61.8954 90.3188 61.8954Z" fill="#1D3C50" stroke="#1D3C50" stroke-miterlimit="10"/>
<path d="M94.4667 61.8954C95.1096 61.8954 95.6312 61.3738 95.6312 60.7309C95.6312 60.088 95.1096 59.5664 94.4667 59.5664C93.8238 59.5664 93.3022 60.088 93.3022 60.7309C93.3022 61.3738 93.8238 61.8954 94.4667 61.8954Z" fill="#1D3C50" stroke="#1D3C50" stroke-miterlimit="10"/>
<path d="M83.4324 65.51C84.0387 66.1597 84.8097 66.6974 85.8644 67.2053C86.7177 67.6171 87.7335 67.9145 88.7997 68.0678C88.7997 68.0678 88.7997 68.0678 88.802 68.0678C89.2321 68.1296 89.5936 68.4155 89.7674 68.8388V68.8411C90.2822 70.0811 91.3323 71.0191 92.6524 71.4195C92.6593 71.4218 92.6661 71.424 92.673 71.4263C92.6776 71.4286 92.6821 71.4286 92.6867 71.4309C92.6936 71.4332 92.6982 71.4332 92.705 71.4355C92.7165 71.4378 92.7279 71.4424 92.7416 71.4446C92.7508 71.4469 92.7622 71.4492 92.7714 71.4515C92.7828 71.4538 92.7942 71.4561 92.8057 71.4584C92.8171 71.4607 92.8286 71.4606 92.8423 71.4629C92.8514 71.4629 92.8606 71.4652 92.872 71.4652C92.8926 71.4675 92.9109 71.4675 92.9315 71.4675C92.9338 71.4675 92.9338 71.4675 92.9361 71.4675C92.9384 71.4675 92.9407 71.4675 92.943 71.4675C92.9635 71.4675 92.9818 71.4675 93.0024 71.4652C93.0139 71.4652 93.023 71.4629 93.0345 71.4629C93.0459 71.4606 93.0574 71.4607 93.0688 71.4584C93.0802 71.4561 93.0939 71.4538 93.1054 71.4515C93.1145 71.4492 93.1237 71.4469 93.1328 71.4446C93.1443 71.4424 93.158 71.4378 93.1694 71.4355C93.1763 71.4332 93.1832 71.4332 93.1878 71.4309C93.19 71.4309 93.1923 71.4286 93.1946 71.4286C93.2175 71.4218 93.2427 71.4126 93.2655 71.4035C93.2678 71.4035 93.2701 71.4012 93.2724 71.4012C93.2953 71.392 93.3204 71.3806 93.341 71.3669C93.3502 71.3623 93.3593 71.3554 93.3685 71.3508C93.3822 71.344 93.3959 71.3348 93.4074 71.328C93.4165 71.3211 93.428 71.3142 93.4371 71.3074C93.4486 71.2982 93.4623 71.2891 93.4737 71.2799C93.4829 71.2731 93.4897 71.2662 93.4989 71.2593C93.5149 71.2456 93.5309 71.2319 93.5469 71.2159C93.5492 71.2136 93.5538 71.2113 93.5561 71.209C93.5744 71.1907 93.5927 71.1701 93.6087 71.1495C93.611 71.1449 93.6156 71.1426 93.6179 71.1381C93.6316 71.1221 93.643 71.1037 93.6568 71.0854C93.6613 71.0809 93.6636 71.074 93.6682 71.0694C93.6796 71.0534 93.6888 71.0351 93.6979 71.0191C93.7025 71.0122 93.7048 71.0054 93.7094 70.9985C93.7185 70.9825 93.7254 70.9665 93.7323 70.9482C93.7368 70.939 93.7391 70.9322 93.7437 70.923C93.7506 70.907 93.7551 70.891 93.762 70.875C93.7643 70.8658 93.7689 70.8567 93.7712 70.8475C93.7712 70.8452 93.7712 70.8452 93.7734 70.8429C93.7757 70.8361 93.778 70.8269 93.778 70.8201C93.7826 70.8018 93.7872 70.7812 93.7917 70.7629C93.794 70.7514 93.7963 70.74 93.7963 70.7308C93.7986 70.7148 93.8009 70.6965 93.8032 70.6782C93.8055 70.6645 93.8055 70.6508 93.8055 70.6393C93.8055 70.6233 93.8078 70.6096 93.8078 70.5936C93.8078 70.5775 93.8078 70.5638 93.8055 70.5478C93.8055 70.5341 93.8032 70.5226 93.8032 70.5089C93.8009 70.4906 93.7986 70.4746 93.7963 70.4563C93.794 70.4449 93.794 70.4357 93.7917 70.4243C93.7872 70.4037 93.7826 70.3854 93.778 70.3671C93.7757 70.3602 93.7757 70.3511 93.7734 70.3442C93.4348 69.2209 93.7895 68.0243 94.6771 67.2922C94.7778 67.2076 94.9334 67.1275 95.0958 67.0428C95.0958 67.0428 95.0958 67.0428 95.0981 67.0428C95.9355 66.6081 96.6058 66.1254 97.1457 65.5717C97.919 64.7779 98.4955 63.8604 98.8113 62.9156C99.2071 61.7373 99.2025 60.4333 98.7975 59.2436C98.1043 57.2028 96.4296 55.583 94.0823 54.6816C93.5286 54.4689 92.9521 54.3041 92.371 54.1943C91.5359 54.0342 90.6826 53.9724 89.9001 54.0113C89.3716 54.0387 88.8569 54.0982 88.3673 54.1875C86.6308 54.5077 85.0682 55.2307 83.8488 56.2831C83.4804 56.6011 83.1396 56.9649 82.8376 57.363C82.5173 57.7839 82.2404 58.2529 82.0368 58.7151C81.2086 60.5911 81.3962 62.7119 82.5379 64.3912C82.8055 64.7824 83.1075 65.1599 83.4324 65.51ZM83.6314 59.4152C83.7824 59.0743 83.9883 58.7265 84.2263 58.4108C84.4551 58.1111 84.709 57.8366 84.9858 57.5986C85.9696 56.7498 87.2485 56.1619 88.6807 55.8988C89.0948 55.8233 89.5341 55.7729 89.9871 55.7478C90.6322 55.7134 91.3415 55.7684 92.0415 55.901C92.522 55.9926 92.9979 56.1275 93.4554 56.3037C94.7664 56.807 96.4708 57.8205 97.1434 59.7972C97.4248 60.6277 97.4294 61.536 97.1549 62.3528C96.9215 63.0483 96.4845 63.7392 95.892 64.3455C95.4825 64.7664 94.9585 65.1393 94.2882 65.4871C94.2882 65.4871 94.2882 65.4871 94.2859 65.4871C94.0617 65.6038 93.8055 65.7388 93.563 65.9378C92.6204 66.7157 92.0484 67.8161 91.9249 68.9898C91.6938 68.7496 91.5062 68.4704 91.3804 68.1662C90.9663 67.1709 90.0969 66.4869 89.0536 66.3382C89.0513 66.3382 89.0513 66.3382 89.0491 66.3382C88.1568 66.2101 87.3194 65.9675 86.6239 65.6312C85.7706 65.2194 85.1643 64.803 84.7113 64.318C84.4459 64.0343 84.2011 63.7278 83.9838 63.4052C83.1784 62.2292 83.048 60.7375 83.6314 59.4152Z" fill="#1D3C50" stroke="#1D3C50" stroke-miterlimit="10"/>
<defs>
<filter id="filter0_d" x="18.0491" y="18.2578" width="113.851" height="113.485" filterUnits="userSpaceOnUse" color-interpolation-filters="sRGB">
<feFlood flood-opacity="0" result="BackgroundImageFix"/>
<feColorMatrix in="SourceAlpha" type="matrix" values="0 0 0 0 0 0 0 0 0 0 0 0 0 0 0 0 0 0 127 0"/>
<feOffset/>
<feGaussianBlur stdDeviation="4"/>
<feColorMatrix type="matrix" values="0 0 0 0 0 0 0 0 0 0 0 0 0 0 0 0 0 0 0.4 0"/>
<feBlend mode="normal" in2="BackgroundImageFix" result="effect1_dropShadow"/>
<feBlend mode="normal" in="SourceGraphic" in2="effect1_dropShadow" result="shape"/>
</filter>
</defs>
</svg>
