<svg width="150" height="150" viewBox="0 0 150 150" fill="none" xmlns="http://www.w3.org/2000/svg">
<path d="M75.0256 123.691C57.5742 123.691 42.2723 114.565 33.6234 100.85L11.7708 113.392C24.7697 134.602 48.2088 148.776 74.9744 148.776C101.689 148.776 125.128 134.653 138.127 113.494L116.326 100.952C107.677 114.616 92.4258 123.691 75.0256 123.691Z" fill="#1E98D7"/>
<path d="M26.2027 75.051C26.2027 48.2325 48.0041 26.4616 74.9232 26.4107V1.32568C34.0839 1.37667 1.02356 34.3644 1.02356 75.051C1.02356 89.0721 4.96419 102.226 11.7707 113.392L33.6233 100.85C28.9151 93.3549 26.2027 84.5344 26.2027 75.051Z" fill="#1E98D7"/>
<path d="M75.0255 1.32568H74.9744V26.4107H75.0255C101.996 26.4107 123.848 48.1816 123.848 75.051C123.848 84.5854 121.085 93.4569 116.377 100.952L138.178 113.494C145.036 102.277 149.028 89.1231 149.028 75.051C148.976 34.3644 115.865 1.32568 75.0255 1.32568Z" fill="#1E98D7"/>
<g filter="url(#filter0_d)">
<path d="M74.8721 123.743C101.893 123.743 123.797 101.92 123.797 75.0002C123.797 48.0805 101.893 26.2578 74.8721 26.2578C47.8514 26.2578 25.9468 48.0805 25.9468 75.0002C25.9468 101.92 47.8514 123.743 74.8721 123.743Z" fill="white"/>
</g>
<path d="M93.284 54.9478H69.4836V60.5485H93.284V54.9478Z" fill="#DCDDDE"/>
<path d="M97.3871 60.9404H73.5868V66.5411H97.3871V60.9404Z" fill="#DCDDDE"/>
<path d="M94.5473 66.3042H70.7469V71.9049H94.5473V66.3042Z" fill="#DCDDDE"/>
<path d="M91.7074 72.2998H67.9071V77.9005H91.7074V72.2998Z" fill="#DCDDDE"/>
<path d="M93.9157 77.3477H70.1154V82.9484H93.9157V77.3477Z" fill="#DCDDDE"/>
<path d="M96.7554 83.6562H72.9551V89.257H96.7554V83.6562Z" fill="#DCDDDE"/>
<path d="M93.9157 88.3887H70.1154V93.9894H93.9157V88.3887Z" fill="#DCDDDE"/>
<path opacity="0.9882" d="M67.1175 93.8525C73.6411 93.8525 78.9296 88.5641 78.9296 82.0405C78.9296 75.5169 73.6411 70.2285 67.1175 70.2285C60.594 70.2285 55.3055 75.5169 55.3055 82.0405C55.3055 88.5641 60.594 93.8525 67.1175 93.8525Z" fill="#FDC010"/>
<path d="M68.3993 88.9994V88.7336C68.9415 88.5414 69.4468 88.2546 69.8653 87.8756C70.7259 87.0965 71.197 86.0438 71.197 84.912C71.197 83.8803 70.718 81.959 67.5097 80.6957C67.0623 80.5194 65.5963 79.8825 65.5963 79.0876C65.5963 78.6613 65.82 78.3691 66.0095 78.198C66.7333 77.5401 68.1598 77.8269 68.4862 78.6902C68.7599 79.414 69.5679 79.7825 70.2916 79.5061C71.0154 79.2324 71.3812 78.4244 71.1075 77.7006C70.6522 76.4952 69.6337 75.5846 68.3967 75.2003V75.0003C68.3967 74.2265 67.7703 73.6001 66.9965 73.6001C66.2227 73.6001 65.5963 74.2265 65.5963 75.0003V75.2661C65.0541 75.4582 64.5488 75.7451 64.1303 76.1241C63.2697 76.9031 62.7986 77.9559 62.7986 79.0876C62.7986 80.1193 63.2776 82.0406 66.4859 83.3039C66.9333 83.4803 68.3993 84.1172 68.3993 84.912C68.3993 85.3384 68.1756 85.6306 67.9861 85.8016C67.2623 86.4596 65.8358 86.1727 65.5095 85.3095C65.2357 84.5857 64.433 84.2225 63.704 84.4936C62.9802 84.7673 62.6144 85.5753 62.8881 86.2991C63.3434 87.5045 64.362 88.4151 65.5989 88.7994V88.9994C65.5989 89.7732 66.2253 90.3996 66.9991 90.3996C67.7729 90.3996 68.3993 89.7732 68.3993 88.9994Z" fill="#1D3C50" stroke="#FBBF14" stroke-width="2.0423" stroke-miterlimit="10"/>
<path d="M93.5998 73.5998C94.3736 73.5998 95 72.9734 95 72.1996V68.0018H96.4002C97.1739 68.0018 97.8003 67.3754 97.8003 66.6016V61.0009C97.8003 60.2271 97.1739 59.6007 96.4002 59.6007H93.5998V55.4002C93.5998 54.6264 92.9734 54 92.1996 54H69.7995C69.0257 54 68.3993 54.6264 68.3993 55.4002V61.0009C68.3993 61.7747 69.0257 62.4011 69.7995 62.4011H72.5998V65.2014H71.1996C70.4259 65.2014 69.7995 65.8278 69.7995 66.6016V68.315C68.8809 68.1281 67.9466 68.0018 66.9991 68.0018C59.2797 68.0018 53 74.2815 53 82.0009C53 89.7203 59.2797 96 66.9991 96H93.5998C94.3736 96 95 95.3736 95 94.5998V90.3993H96.4002C97.1739 90.3993 97.8003 89.7729 97.8003 88.9991V83.3984C97.8003 82.6246 97.1739 81.9982 96.4002 81.9982H95V77.7977C95 77.0239 94.3736 76.3975 93.5998 76.3975H92.1996V73.5972H93.5998V73.5998ZM71.1996 56.8004H90.7995V59.6007H74H71.1996V56.8004ZM75.4002 62.4011H92.1996H95V65.2014H93.5998H75.4002V62.4011ZM72.5998 69.1808V68.0018H74H92.1996V70.8021H90.7995H75.3923C74.958 70.4757 74.5001 70.1757 74.0263 69.902C74.0105 69.8915 74.0026 69.8757 73.9868 69.8678C73.621 69.6572 73.2367 69.4862 72.8525 69.3098C72.7683 69.2703 72.6867 69.2177 72.5998 69.1808ZM55.8003 82.0009C55.8003 75.8264 60.8247 70.8021 66.9991 70.8021C68.3098 70.8021 69.6021 71.0521 70.8207 71.4943C71.9997 71.9233 73.0788 72.5207 74.0263 73.2893L74.0289 73.2919C75.2001 74.2367 76.1555 75.4106 76.8609 76.7318C76.9425 76.8844 77.0083 77.0397 77.082 77.195C77.2504 77.5477 77.4162 77.9004 77.5478 78.2688C77.7189 78.7557 77.8478 79.2479 77.9531 79.7453C77.99 79.9217 78.0294 80.098 78.0558 80.277C78.0795 80.427 78.0979 80.5744 78.1137 80.7244C78.161 81.1455 78.1979 81.5745 78.1979 82.0009C78.1979 82.422 78.1689 82.8378 78.1242 83.2458C78.0768 83.6642 78.0031 84.0775 77.911 84.4854C77.8926 84.567 77.8689 84.6459 77.8478 84.7275C77.7663 85.0513 77.6715 85.3723 77.561 85.6882C77.5241 85.7961 77.4846 85.9014 77.4452 86.0066C77.3373 86.2883 77.2136 86.5646 77.0846 86.8383C77.0293 86.9541 76.9767 87.0726 76.9161 87.1857C76.774 87.4594 76.6135 87.7253 76.4477 87.9858C76.2345 88.3227 76.0055 88.6464 75.7581 88.9596C75.6344 89.1123 75.5028 89.2649 75.3633 89.4229C75.2712 89.5255 75.1791 89.6308 75.0817 89.7334C74.937 89.8861 74.7817 90.0335 74.6238 90.1808C74.558 90.2414 74.4922 90.3019 74.4264 90.3624C74.2579 90.5125 74.0816 90.6625 73.8921 90.8125C73.8579 90.8415 73.8184 90.8678 73.7842 90.8941C72.8604 91.5994 71.8418 92.1548 70.7496 92.5443C70.7285 92.5522 70.7075 92.5601 70.6864 92.568C70.4153 92.6627 70.1416 92.7443 69.8679 92.818C69.81 92.8338 69.7495 92.8496 69.6916 92.8628C69.4521 92.9233 69.2126 92.9733 68.9731 93.018C68.8362 93.0417 68.6967 93.0628 68.5598 93.0812C68.3809 93.1075 68.1993 93.1338 68.0203 93.1496C67.6834 93.1812 67.3439 93.2023 66.9991 93.2023C60.8247 93.1996 55.8003 88.1753 55.8003 82.0009ZM92.1996 93.1996H75.3791C75.466 93.1365 75.5502 93.0707 75.637 93.0049C75.6581 92.9891 75.6765 92.968 75.6976 92.9522C76.195 92.5548 76.6635 92.1258 77.1056 91.6652C77.1241 91.6442 77.1478 91.6284 77.1662 91.61L77.3557 91.4047C77.403 91.352 77.4399 91.302 77.4873 91.2494C77.6662 91.0467 77.8426 90.8388 78.011 90.6256C78.0716 90.5519 78.1426 90.4756 78.1979 90.4019H92.2049V93.1996H92.1996ZM95 87.5989H93.5998H79.827C79.8349 87.5832 79.8402 87.5647 79.8455 87.5489C80.2245 86.6751 80.5219 85.7566 80.7166 84.8012H93.5998H95V87.5989ZM80.9982 82.0009C80.9982 81.4534 80.9561 80.906 80.8877 80.3612C80.8798 80.2849 80.8824 80.2085 80.8719 80.1349C80.8482 79.9533 80.7982 79.7769 80.7693 79.5979C80.7456 79.4663 80.7351 79.3348 80.7087 79.2032H90.7995H92.1996V82.0035H80.9982V82.0009ZM89.3993 76.4002H79.8218C79.6139 75.9264 79.3901 75.4606 79.1322 75.0132C79.1217 74.9921 79.1006 74.9842 79.0901 74.9631C78.8164 74.492 78.5163 74.0367 78.19 73.5998H89.4019V76.4002H89.3993Z" fill="#1D3C50"/>
<defs>
<filter id="filter0_d" x="17.9468" y="18.2578" width="113.851" height="113.485" filterUnits="userSpaceOnUse" color-interpolation-filters="sRGB">
<feFlood flood-opacity="0" result="BackgroundImageFix"/>
<feColorMatrix in="SourceAlpha" type="matrix" values="0 0 0 0 0 0 0 0 0 0 0 0 0 0 0 0 0 0 127 0"/>
<feOffset/>
<feGaussianBlur stdDeviation="4"/>
<feColorMatrix type="matrix" values="0 0 0 0 0 0 0 0 0 0 0 0 0 0 0 0 0 0 0.4 0"/>
<feBlend mode="normal" in2="BackgroundImageFix" result="effect1_dropShadow"/>
<feBlend mode="normal" in="SourceGraphic" in2="effect1_dropShadow" result="shape"/>
</filter>
</defs>
</svg>
